<mxfile host="Electron" agent="Mozilla/5.0 (Windows NT 10.0; Win64; x64) AppleWebKit/537.36 (KHTML, like Gecko) draw.io/27.0.9 Chrome/134.0.6998.205 Electron/35.4.0 Safari/537.36" version="27.0.9">
  <diagram name="Страница — 1" id="f9BEwC2ymH8xKrrfNUyG">
    <mxGraphModel dx="872" dy="553" grid="1" gridSize="10" guides="1" tooltips="1" connect="1" arrows="1" fold="1" page="1" pageScale="1" pageWidth="1169" pageHeight="827" math="0" shadow="0">
      <root>
        <mxCell id="0" />
        <mxCell id="1" parent="0" />
        <mxCell id="cEzjU-Vr21JUo2Kq1G-R-9" style="edgeStyle=orthogonalEdgeStyle;rounded=0;orthogonalLoop=1;jettySize=auto;html=1;exitX=0.5;exitY=1;exitDx=0;exitDy=0;entryX=0.5;entryY=0;entryDx=0;entryDy=0;" edge="1" parent="1" source="cEzjU-Vr21JUo2Kq1G-R-1" target="cEzjU-Vr21JUo2Kq1G-R-2">
          <mxGeometry relative="1" as="geometry" />
        </mxCell>
        <mxCell id="cEzjU-Vr21JUo2Kq1G-R-1" value="Вопросы" style="rounded=0;whiteSpace=wrap;html=1;" vertex="1" parent="1">
          <mxGeometry x="95" y="20" width="120" height="60" as="geometry" />
        </mxCell>
        <mxCell id="cEzjU-Vr21JUo2Kq1G-R-10" style="edgeStyle=orthogonalEdgeStyle;rounded=0;orthogonalLoop=1;jettySize=auto;html=1;exitX=0.5;exitY=1;exitDx=0;exitDy=0;entryX=0.5;entryY=0;entryDx=0;entryDy=0;" edge="1" parent="1" source="cEzjU-Vr21JUo2Kq1G-R-2" target="cEzjU-Vr21JUo2Kq1G-R-3">
          <mxGeometry relative="1" as="geometry" />
        </mxCell>
        <mxCell id="cEzjU-Vr21JUo2Kq1G-R-2" value="Выбор" style="rhombus;whiteSpace=wrap;html=1;" vertex="1" parent="1">
          <mxGeometry x="90" y="110" width="130" height="90" as="geometry" />
        </mxCell>
        <mxCell id="cEzjU-Vr21JUo2Kq1G-R-11" style="edgeStyle=orthogonalEdgeStyle;rounded=0;orthogonalLoop=1;jettySize=auto;html=1;exitX=0.5;exitY=1;exitDx=0;exitDy=0;entryX=0.5;entryY=0;entryDx=0;entryDy=0;" edge="1" parent="1" source="cEzjU-Vr21JUo2Kq1G-R-3" target="cEzjU-Vr21JUo2Kq1G-R-4">
          <mxGeometry relative="1" as="geometry" />
        </mxCell>
        <mxCell id="cEzjU-Vr21JUo2Kq1G-R-3" value="Варианты ответов" style="rounded=0;whiteSpace=wrap;html=1;" vertex="1" parent="1">
          <mxGeometry x="95" y="230" width="120" height="60" as="geometry" />
        </mxCell>
        <mxCell id="cEzjU-Vr21JUo2Kq1G-R-28" style="edgeStyle=orthogonalEdgeStyle;rounded=0;orthogonalLoop=1;jettySize=auto;html=1;exitX=1;exitY=0.5;exitDx=0;exitDy=0;entryX=0;entryY=0.5;entryDx=0;entryDy=0;" edge="1" parent="1" source="cEzjU-Vr21JUo2Kq1G-R-4" target="cEzjU-Vr21JUo2Kq1G-R-15">
          <mxGeometry relative="1" as="geometry" />
        </mxCell>
        <mxCell id="cEzjU-Vr21JUo2Kq1G-R-4" value="Формирование" style="rhombus;whiteSpace=wrap;html=1;" vertex="1" parent="1">
          <mxGeometry x="105" y="320" width="115" height="80" as="geometry" />
        </mxCell>
        <mxCell id="cEzjU-Vr21JUo2Kq1G-R-22" style="edgeStyle=orthogonalEdgeStyle;rounded=0;orthogonalLoop=1;jettySize=auto;html=1;exitX=0.5;exitY=0;exitDx=0;exitDy=0;entryX=0.5;entryY=1;entryDx=0;entryDy=0;" edge="1" parent="1" source="cEzjU-Vr21JUo2Kq1G-R-14" target="cEzjU-Vr21JUo2Kq1G-R-16">
          <mxGeometry relative="1" as="geometry" />
        </mxCell>
        <mxCell id="cEzjU-Vr21JUo2Kq1G-R-14" value="Отправка" style="rhombus;whiteSpace=wrap;html=1;" vertex="1" parent="1">
          <mxGeometry x="504.5" y="344" width="80" height="80" as="geometry" />
        </mxCell>
        <mxCell id="cEzjU-Vr21JUo2Kq1G-R-29" style="edgeStyle=orthogonalEdgeStyle;rounded=0;orthogonalLoop=1;jettySize=auto;html=1;exitX=1;exitY=0.5;exitDx=0;exitDy=0;entryX=0;entryY=0.5;entryDx=0;entryDy=0;" edge="1" parent="1" source="cEzjU-Vr21JUo2Kq1G-R-15" target="cEzjU-Vr21JUo2Kq1G-R-14">
          <mxGeometry relative="1" as="geometry" />
        </mxCell>
        <mxCell id="cEzjU-Vr21JUo2Kq1G-R-15" value="Результат" style="rounded=0;whiteSpace=wrap;html=1;" vertex="1" parent="1">
          <mxGeometry x="300" y="354" width="120" height="60" as="geometry" />
        </mxCell>
        <mxCell id="cEzjU-Vr21JUo2Kq1G-R-16" value="Заполненная форма" style="rounded=0;whiteSpace=wrap;html=1;" vertex="1" parent="1">
          <mxGeometry x="610" y="130" width="160" height="85" as="geometry" />
        </mxCell>
        <mxCell id="cEzjU-Vr21JUo2Kq1G-R-23" value="Закрытые" style="ellipse;whiteSpace=wrap;html=1;" vertex="1" parent="1">
          <mxGeometry x="290" y="20" width="120" height="80" as="geometry" />
        </mxCell>
        <mxCell id="cEzjU-Vr21JUo2Kq1G-R-24" value="Верный" style="ellipse;whiteSpace=wrap;html=1;" vertex="1" parent="1">
          <mxGeometry x="250" y="180" width="100" height="60" as="geometry" />
        </mxCell>
        <mxCell id="cEzjU-Vr21JUo2Kq1G-R-25" value="Ложный" style="ellipse;whiteSpace=wrap;html=1;" vertex="1" parent="1">
          <mxGeometry x="250" y="270" width="90" height="60" as="geometry" />
        </mxCell>
        <mxCell id="cEzjU-Vr21JUo2Kq1G-R-30" value="Бальный" style="ellipse;whiteSpace=wrap;html=1;" vertex="1" parent="1">
          <mxGeometry x="390" y="270" width="60" height="60" as="geometry" />
        </mxCell>
        <mxCell id="cEzjU-Vr21JUo2Kq1G-R-31" value="" style="curved=1;endArrow=classic;html=1;rounded=0;entryX=0;entryY=0.5;entryDx=0;entryDy=0;" edge="1" parent="1" target="cEzjU-Vr21JUo2Kq1G-R-23">
          <mxGeometry width="50" height="50" relative="1" as="geometry">
            <mxPoint x="215" y="70" as="sourcePoint" />
            <mxPoint x="265" y="20" as="targetPoint" />
            <Array as="points">
              <mxPoint x="265" y="70" />
              <mxPoint x="215" y="20" />
            </Array>
          </mxGeometry>
        </mxCell>
        <mxCell id="cEzjU-Vr21JUo2Kq1G-R-32" value="" style="curved=1;endArrow=classic;html=1;rounded=0;entryX=0;entryY=0.5;entryDx=0;entryDy=0;" edge="1" parent="1" target="cEzjU-Vr21JUo2Kq1G-R-30">
          <mxGeometry width="50" height="50" relative="1" as="geometry">
            <mxPoint x="320" y="354" as="sourcePoint" />
            <mxPoint x="370" y="304" as="targetPoint" />
            <Array as="points">
              <mxPoint x="370" y="354" />
              <mxPoint x="320" y="304" />
            </Array>
          </mxGeometry>
        </mxCell>
        <mxCell id="cEzjU-Vr21JUo2Kq1G-R-33" value="" style="curved=1;endArrow=classic;html=1;rounded=0;" edge="1" parent="1">
          <mxGeometry width="50" height="50" relative="1" as="geometry">
            <mxPoint x="210" y="270" as="sourcePoint" />
            <mxPoint x="250" y="220" as="targetPoint" />
            <Array as="points">
              <mxPoint x="260" y="270" />
              <mxPoint x="210" y="220" />
            </Array>
          </mxGeometry>
        </mxCell>
        <mxCell id="cEzjU-Vr21JUo2Kq1G-R-34" value="" style="curved=1;endArrow=classic;html=1;rounded=0;" edge="1" parent="1">
          <mxGeometry width="50" height="50" relative="1" as="geometry">
            <mxPoint x="210" y="290" as="sourcePoint" />
            <mxPoint x="280" y="270" as="targetPoint" />
            <Array as="points">
              <mxPoint x="260" y="290" />
              <mxPoint x="210" y="240" />
            </Array>
          </mxGeometry>
        </mxCell>
      </root>
    </mxGraphModel>
  </diagram>
</mxfile>
